<svg width="120" height="30" viewBox="0 0 808 156" fill="none" xmlns="http://www.w3.org/2000/svg" cursor="pointer"><g clip-path="url(#clip0_1391_1475)"><path d="M266.938 31.0274C262.467 28.7533 257.38 27.6163 251.637 27.6163H215.021V123.261H226.507V84.7373H251.637C257.187 84.7373 262.255 83.6388 266.803 81.4611C271.352 79.2642 274.955 76.1229 277.596 72.0373C280.332 67.8554 281.7 62.8833 281.7 57.1404V55.3674C281.7 49.5474 280.39 44.5753 277.73 40.4704C275.09 36.3656 271.487 33.2243 266.938 31.0466V31.0274ZM270.215 56.8513C270.215 62.4015 268.442 66.7376 264.876 69.8211C261.33 72.8274 256.493 74.3306 250.384 74.3306H226.468V37.9844H250.384C256.57 37.9844 261.407 39.5261 264.876 42.6289C268.422 45.6352 270.215 49.9135 270.215 55.4637V56.832V56.8513Z" fill="#FF773D"></path><path d="M360.866 70.1101H316.06V27.6163H304.593V123.261H316.06V80.4975H360.866V123.261H372.352V27.6163H360.866V70.1101Z" fill="#FF773D"></path><path d="M694.899 27.6163H683.413V123.261H694.899V27.6163Z" fill="#FF773D"></path><path d="M436.473 25.7073C425.083 25.7073 415.987 29.022 409.145 35.6707C402.4 42.223 399.028 51.8396 399.028 64.501V86.355C399.028 99.0164 402.4 108.671 409.145 115.32C415.987 121.873 425.083 125.149 436.473 125.149C447.862 125.149 457.055 121.873 463.8 115.32C470.622 108.671 474.052 99.0164 474.052 86.355V64.501C474.052 51.8396 470.641 42.223 463.8 35.6707C457.055 29.022 447.958 25.7073 436.473 25.7073ZM462.566 86.779C462.566 95.6053 460.292 102.543 455.744 107.554C451.196 112.468 444.759 114.935 436.473 114.935C428.186 114.935 421.903 112.468 417.336 107.554C412.788 102.543 410.514 95.6246 410.514 86.779V64.0963C410.514 55.2506 412.788 48.3899 417.336 43.4564C421.884 38.4458 428.263 35.9405 436.473 35.9405C444.682 35.9405 451.177 38.4458 455.744 43.4564C460.292 48.3707 462.566 55.2506 462.566 64.0963V86.779Z" fill="#FF773D"></path><path d="M765.28 75.0244L795.613 27.6163H782.22L757.764 67.1038H755.991L731.67 27.6163H718.142L748.61 75.0244L717.737 123.261H731.131L755.991 82.9643H757.764L782.778 123.261H796.153L765.28 75.0244Z" fill="#FF773D"></path><path d="M512.15 80.3626H555.742V69.9752H512.15V38.0037H559.558V27.6163H500.683V123.261H560.252V112.874H512.15V80.3626Z" fill="#FF773D"></path><path d="M642.524 104.356L596.523 27.6163H585.172V123.261H596.523V46.541L642.524 123.261H653.875V27.6163H642.524V104.356Z" fill="#FF773D"></path><mask id="mask0_1391_1475" maskUnits="userSpaceOnUse" x="0" y="-1" width="129" height="157" style="mask-type: luminance;"><path d="M128.137 -0.000106812H0V155.657H128.137V-0.000106812Z" fill="white"></path></mask><g mask="url(#mask0_1391_1475)"><path d="M0 0.385325L63.8853 73.8679L128.137 -0.000106812L95.0089 24.7253C76.6431 38.4274 51.4744 38.4853 33.0508 24.841L0 0.385325Z" fill="#FF773D"></path><path d="M0 155.271L63.8853 81.788L128.118 155.637L94.9897 130.911C76.6239 117.209 51.4552 117.151 33.0315 130.796L0 155.271Z" fill="#FF773D"></path></g></g><defs><clipPath id="clip0_1391_1475"><rect width="808" height="155.657" fill="white"></rect></clipPath></defs></svg>