<svg width="104" height="32" viewBox="0 0 104 32" fill="none" xmlns="http://www.w3.org/2000/svg">
<path d="M3.09074 25.1666C4.44267 27.0471 6.17683 28.6205 8.1795 29.7838C10.1822 30.947 12.4081 31.6738 14.7114 31.9165C13.5264 30.1333 11.8039 28.4928 9.65354 27.2438C7.50318 25.9948 5.22591 25.3125 3.09074 25.1666Z" fill="url(#paint0_linear_13278_146906)"/>
<path d="M12.543 22.2705C8.40015 19.8636 3.91612 19.2502 0.707662 20.3338C1.0174 21.3575 1.42589 22.3487 1.92738 23.2934C4.71498 23.2288 7.75856 23.9859 10.5906 25.6308C13.4227 27.2757 15.5888 29.5459 16.9143 32C17.9839 31.9672 19.0479 31.8309 20.0913 31.5932C19.4426 28.2698 16.6849 24.6779 12.543 22.2705Z" fill="url(#paint1_linear_13278_146906)"/>
<path d="M32.2852 12.5009C31.7585 10.3584 30.8054 8.34403 29.4829 6.57804C28.1604 4.81205 26.4956 3.33067 24.5879 2.22235C22.6802 1.11403 20.5687 0.401504 18.3796 0.12731C16.1904 -0.146884 13.9684 0.02288 11.8463 0.626466C15.3915 1.06033 19.3267 2.39122 23.1859 4.63324C27.0452 6.87525 30.1533 9.63411 32.2852 12.5009Z" fill="url(#paint2_linear_13278_146906)"/>
<path d="M27.1271 20.3583C25.3124 17.3446 22.2038 14.4588 18.3743 12.2342C14.5449 10.0095 10.4991 8.7388 6.98531 8.65474C3.894 8.58152 1.57389 9.48017 0.621548 11.1197C0.616124 11.1294 0.608531 11.1386 0.602566 11.1484C0.516877 11.4559 0.443119 11.7639 0.37587 12.0731C1.70568 11.5481 3.24645 11.2558 4.95969 11.2232C8.76959 11.1517 13.0334 12.3703 16.9681 14.6562C20.9027 16.9422 24.0759 20.0438 25.9003 23.3878C26.7182 24.8944 27.2285 26.3777 27.4308 27.7948C27.6662 27.5844 27.8972 27.3669 28.1212 27.1408C28.1272 27.1305 28.131 27.1196 28.1369 27.1088C29.0893 25.4677 28.721 23.0076 27.1271 20.3583Z" fill="url(#paint3_linear_13278_146906)"/>
<path d="M15.4609 17.2485C9.59662 13.8416 3.11626 13.3079 -5.33621e-07 15.6855C0.00612042 16.4297 0.0630161 17.1726 0.170292 17.9091C1.08699 17.6312 2.03177 17.4562 2.98718 17.3874C6.46951 17.1254 10.3087 18.0957 13.7927 20.1207C17.2766 22.1458 20.023 25.0018 21.5209 28.1543C21.935 29.018 22.2508 29.9254 22.4624 30.8595C23.1555 30.5878 23.8294 30.2694 24.4794 29.9066C25.0011 26.0213 21.3268 20.656 15.4609 17.2485Z" fill="url(#paint4_linear_13278_146906)"/>
<path d="M30.1434 15.3141C28.3082 12.3036 25.1724 9.40969 21.3158 7.17039C17.4593 4.93109 13.3977 3.64033 9.87257 3.53674C7.1853 3.45919 5.10382 4.11053 4.02457 5.34109C8.50588 4.58182 14.4168 5.85794 20.146 9.18625C25.8753 12.5146 29.9135 17.0181 31.4722 21.2868C32.0064 19.7406 31.5416 17.6098 30.1434 15.3141Z" fill="url(#paint5_linear_13278_146906)"/>
<path d="M46.6645 9.90909L49.4003 9.90909L49.4003 19.0369C49.4003 19.8807 49.2107 20.6136 48.8314 21.2358C48.4564 21.858 47.9344 22.3374 47.2654 22.674C46.5963 23.0107 45.8186 23.179 44.9323 23.179C44.1439 23.179 43.428 23.0405 42.7845 22.7635C42.1453 22.4822 41.6382 22.0561 41.2632 21.4851C40.8882 20.9098 40.7029 20.1875 40.7071 19.3182L43.4621 19.3182C43.4706 19.6634 43.5409 19.9595 43.673 20.2067C43.8094 20.4496 43.9948 20.6371 44.2291 20.7692C44.4678 20.897 44.749 20.9609 45.0729 20.9609C45.4138 20.9609 45.7014 20.8885 45.9358 20.7436C46.1745 20.5945 46.3556 20.3771 46.4791 20.0916C46.6027 19.8061 46.6645 19.4545 46.6645 19.0369L46.6645 9.90909ZM57.9337 18.8196L57.9337 13.1818L60.6567 13.1818L60.6567 23L58.0423 23L58.0423 21.2166L57.9401 21.2166C57.7185 21.7919 57.3499 22.2543 56.8343 22.6037C56.3229 22.9531 55.6986 23.1278 54.9614 23.1278C54.3051 23.1278 53.7277 22.9787 53.2291 22.6804C52.7306 22.3821 52.3406 21.9581 52.0594 21.4084C51.7824 20.8587 51.6418 20.2003 51.6375 19.4332L51.6375 13.1818L54.3605 13.1818L54.3605 18.9474C54.3648 19.527 54.5203 19.9851 54.8272 20.3217C55.134 20.6584 55.5452 20.8267 56.0608 20.8267C56.3889 20.8267 56.6958 20.7521 56.9813 20.603C57.2668 20.4496 57.4969 20.2237 57.6716 19.9254C57.8506 19.6271 57.9379 19.2585 57.9337 18.8196ZM62.8348 26.6818L62.8348 13.1818L65.5194 13.1818L65.5194 14.831L65.6409 14.831C65.7602 14.5668 65.9328 14.2983 66.1586 14.0256C66.3888 13.7486 66.6871 13.5185 67.0535 13.3352C67.4243 13.1477 67.8845 13.054 68.4342 13.054C69.1501 13.054 69.8106 13.2415 70.4158 13.6165C71.0209 13.9872 71.5045 14.5476 71.8667 15.2976C72.229 16.0433 72.4101 16.9787 72.4101 18.1037C72.4101 19.1989 72.2332 20.1236 71.8795 20.8778C71.5301 21.6278 71.0528 22.1967 70.4477 22.5845C69.8469 22.968 69.1736 23.1598 68.4278 23.1598C67.8994 23.1598 67.4498 23.0724 67.0791 22.8977C66.7126 22.723 66.4122 22.5036 66.1778 22.2393C65.9435 21.9709 65.7645 21.7003 65.6409 21.4276L65.5578 21.4276L65.5578 26.6818L62.8348 26.6818ZM65.5003 18.0909C65.5003 18.6747 65.5812 19.1839 65.7432 19.6186C65.9051 20.0533 66.1395 20.392 66.4463 20.6349C66.7531 20.8736 67.126 20.9929 67.5649 20.9929C68.0081 20.9929 68.3831 20.8714 68.6899 20.6286C68.9967 20.3814 69.229 20.0405 69.3866 19.6058C69.5486 19.1669 69.6295 18.6619 69.6295 18.0909C69.6295 17.5241 69.5507 17.0256 69.393 16.5952C69.2354 16.1648 69.0031 15.8281 68.6963 15.5852C68.3895 15.3423 68.0123 15.2209 67.5649 15.2209C67.1217 15.2209 66.7467 15.3381 66.4399 15.5724C66.1373 15.8068 65.9051 16.1392 65.7432 16.5696C65.5812 17 65.5003 17.5071 65.5003 18.0909ZM74.2254 23L74.2254 13.1818L76.9484 13.1818L76.9484 23L74.2254 23ZM75.5933 11.9162C75.1885 11.9162 74.8412 11.782 74.5514 11.5135C74.2659 11.2408 74.1231 10.9148 74.1231 10.5355C74.1231 10.1605 74.2659 9.83878 74.5514 9.57031C74.8412 9.29759 75.1885 9.16122 75.5933 9.16122C75.9981 9.16122 76.3433 9.29759 76.6288 9.57031C76.9186 9.83878 77.0635 10.1605 77.0635 10.5355C77.0635 10.9148 76.9186 11.2408 76.6288 11.5135C76.3433 11.782 75.9981 11.9162 75.5933 11.9162ZM84.352 13.1818L84.352 15.2273L78.4394 15.2273L78.4394 13.1818L84.352 13.1818ZM79.7817 10.8295L82.5047 10.8295L82.5047 19.983C82.5047 20.2344 82.5431 20.4304 82.6198 20.571C82.6965 20.7074 82.803 20.8033 82.9394 20.8587C83.08 20.9141 83.2419 20.9418 83.4252 20.9418C83.553 20.9418 83.6808 20.9311 83.8087 20.9098C83.9365 20.8842 84.0345 20.8651 84.1027 20.8523L84.531 22.8786C84.3946 22.9212 84.2029 22.9702 83.9557 23.0256C83.7085 23.0852 83.4081 23.1215 83.0544 23.1342C82.3982 23.1598 81.8229 23.0724 81.3286 22.8722C80.8385 22.6719 80.4571 22.3608 80.1844 21.9389C79.9117 21.517 79.7774 20.9844 79.7817 20.3409L79.7817 10.8295ZM90.4948 23.1918C89.4848 23.1918 88.6155 22.9872 87.8868 22.5781C87.1624 22.1648 86.6041 21.581 86.2121 20.8267C85.82 20.0682 85.624 19.1712 85.624 18.1357C85.624 17.1257 85.82 16.2393 86.2121 15.4766C86.6041 14.7138 87.156 14.1193 87.8676 13.6932C88.5835 13.267 89.423 13.054 90.3861 13.054C91.0338 13.054 91.6368 13.1584 92.195 13.3672C92.7575 13.5717 93.2476 13.8807 93.6652 14.294C94.0871 14.7074 94.4152 15.2273 94.6496 15.8537C94.884 16.4759 95.0012 17.2045 95.0012 18.0398L95.0012 18.7876L86.7107 18.7876L86.7107 17.1001L92.4379 17.1001C92.4379 16.7081 92.3527 16.3608 92.1823 16.0582C92.0118 15.7557 91.7753 15.5192 91.4727 15.3487C91.1745 15.174 90.8272 15.0866 90.4308 15.0866C90.0175 15.0866 89.651 15.1825 89.3314 15.3743C89.0161 15.5618 88.7689 15.8153 88.5899 16.1349C88.411 16.4503 88.3193 16.8018 88.3151 17.1896L88.3151 18.794C88.3151 19.2798 88.4046 19.6996 88.5835 20.0533C88.7668 20.407 89.0246 20.6797 89.357 20.8715C89.6894 21.0632 90.0835 21.1591 90.5395 21.1591C90.8421 21.1591 91.1191 21.1165 91.3705 21.0313C91.6219 20.946 91.8371 20.8182 92.0161 20.6477C92.195 20.4773 92.3314 20.2685 92.4252 20.0213L94.9436 20.1875C94.8158 20.7926 94.5537 21.321 94.1574 21.7727C93.7654 22.2202 93.2583 22.5696 92.6361 22.821C92.0182 23.0682 91.3044 23.1918 90.4948 23.1918ZM96.7781 23L96.7781 13.1818L99.4181 13.1818L99.4181 14.8949L99.5203 14.8949C99.6993 14.2855 99.9997 13.8253 100.422 13.5142C100.843 13.1989 101.329 13.0412 101.879 13.0412C102.015 13.0412 102.162 13.0497 102.32 13.0668C102.478 13.0838 102.616 13.1072 102.736 13.1371L102.736 15.5533C102.608 15.5149 102.431 15.4808 102.205 15.451C101.979 15.4212 101.772 15.4063 101.585 15.4063C101.184 15.4063 100.826 15.4936 100.511 15.6683C100.2 15.8388 99.9529 16.0774 99.7696 16.3842C99.5906 16.6911 99.5012 17.0447 99.5012 17.4453L99.5012 23L96.7781 23Z" fill="white"/>
<defs>
<linearGradient id="paint0_linear_13278_146906" x1="21.5" y1="6.5" x2="6.66667" y2="32" gradientUnits="userSpaceOnUse">
<stop offset="0.0001" stop-color="#C7F284"/>
<stop offset="1" stop-color="#00BEF0"/>
</linearGradient>
<linearGradient id="paint1_linear_13278_146906" x1="21.5" y1="6.5" x2="6.66667" y2="32" gradientUnits="userSpaceOnUse">
<stop offset="0.0001" stop-color="#C7F284"/>
<stop offset="1" stop-color="#00BEF0"/>
</linearGradient>
<linearGradient id="paint2_linear_13278_146906" x1="21.5" y1="6.5" x2="6.66667" y2="32" gradientUnits="userSpaceOnUse">
<stop offset="0.0001" stop-color="#C7F284"/>
<stop offset="1" stop-color="#00BEF0"/>
</linearGradient>
<linearGradient id="paint3_linear_13278_146906" x1="21.5" y1="6.5" x2="6.66667" y2="32" gradientUnits="userSpaceOnUse">
<stop offset="0.0001" stop-color="#C7F284"/>
<stop offset="1" stop-color="#00BEF0"/>
</linearGradient>
<linearGradient id="paint4_linear_13278_146906" x1="21.5" y1="6.5" x2="6.66667" y2="32" gradientUnits="userSpaceOnUse">
<stop offset="0.0001" stop-color="#C7F284"/>
<stop offset="1" stop-color="#00BEF0"/>
</linearGradient>
<linearGradient id="paint5_linear_13278_146906" x1="21.5" y1="6.5" x2="6.66667" y2="32" gradientUnits="userSpaceOnUse">
<stop offset="0.0001" stop-color="#C7F284"/>
<stop offset="1" stop-color="#00BEF0"/>
</linearGradient>
</defs>
</svg>
