<svg id="Layer_1" xmlns="http://www.w3.org/2000/svg" xmlns:xlink="http://www.w3.org/1999/xlink" viewBox="0 0 793.43 146.29"><defs><style>.cls-1{fill:url(#linear-gradient);}.cls-2{fill:#fff;}.cls-3{fill:url(#linear-gradient-3);}.cls-4{fill:url(#linear-gradient-4);}.cls-5{fill:url(#linear-gradient-2);}.cls-6{fill:url(#linear-gradient-6);}.cls-7{fill:url(#linear-gradient-5);}</style><linearGradient id="linear-gradient" x1="162.14" y1="106.59" x2="229.22" y2="39.51" gradientUnits="userSpaceOnUse"><stop offset="0" stop-color="#a100ff"/><stop offset="1" stop-color="#00e9b2"/></linearGradient><linearGradient id="linear-gradient-2" x1="120.3" y1="108.21" x2="190.62" y2="37.89" xlink:href="#linear-gradient"/><linearGradient id="linear-gradient-3" x1="84.74" y1="110.99" x2="160.63" y2="35.1" xlink:href="#linear-gradient"/><linearGradient id="linear-gradient-4" x1="-24.44" y1="106.69" x2="42.83" y2="39.41" xlink:href="#linear-gradient"/><linearGradient id="linear-gradient-5" x1="14.15" y1="108.31" x2="84.67" y2="37.79" xlink:href="#linear-gradient"/><linearGradient id="linear-gradient-6" x1="44.14" y1="111.09" x2="120.23" y2="35.01" xlink:href="#linear-gradient"/></defs><path class="cls-2" d="M297.13,98.03c-6.82,6.63-15.69,10.27-25.21,10.27s-18.59-3.64-25.3-10.27c-6.82-6.63-10.37-15.22-10.37-24.75s3.55-18.11,10.37-24.84c6.81-6.63,15.69-10.18,25.3-10.18s18.39,3.55,25.21,10.18c6.82,6.72,10.46,15.41,10.46,24.84s-3.64,18.12-10.46,24.75Zm-8.03-42.49c-4.58-4.76-10.74-7.29-17.18-7.29s-12.61,2.53-17.28,7.29c-4.67,4.76-7.1,11.02-7.1,17.74s2.43,12.89,7.1,17.65c4.67,4.76,10.74,7.28,17.28,7.28s12.51-2.52,17.18-7.28c4.67-4.76,7.19-10.92,7.19-17.65s-2.52-12.98-7.19-17.74Zm45.7,50.98h-10.18V39.76h16.44c6.82,0,12.23,.19,16.72,3.46,4.12,2.99,6.73,8.5,6.73,14.94s-2.61,12.05-6.73,15.03c-4.49,3.18-9.9,3.36-16.72,3.36h-6.25v29.97Zm3.46-38.85c9.99,0,15.03-1.12,15.03-8.87s-4.95-9.71-15.03-9.71h-2.81v18.58h2.81Zm40.67-27.92h37.27v9.25h-26.44v16.72h26.44v9.53h-26.44v21.57h26.44v9.71h-37.27V39.76Zm54.31-2.61l42.4,40.81c2.7,2.62,5.04,5.32,7.28,8.13V39.76h9.99V109.14l-43.23-41.55c-2.43-2.34-4.58-4.86-6.44-7.47v46.41h-10V37.15Zm79.59,2.61h16.81c7.1,0,12.43,.28,16.53,3.36,4.12,2.99,6.54,8.13,6.54,14.1,0,7.09-3.36,12.05-9.62,13.91,7.75,1.21,12.51,7.47,12.51,16.43,0,5.51-2.06,10.55-5.41,13.92-4.76,4.76-11.12,5.04-20.45,5.04h-16.91V39.76Zm14.76,28.2c9.8,0,14.2-2.24,14.2-9.24,0-8.31-4.58-9.9-14.2-9.9h-4.12v19.14h4.12Zm-.38,29.51c6.08,0,10.37-.28,12.98-2.06,2.61-1.77,4.21-4.86,4.21-8.5,0-4.2-1.78-7.47-5.13-9.24-2.53-1.31-5.51-1.5-8.79-1.5h-7.01v21.29h3.73Zm102.03,.56c-6.82,6.63-15.69,10.27-25.21,10.27s-18.59-3.64-25.3-10.27c-6.82-6.63-10.37-15.22-10.37-24.75s3.55-18.11,10.37-24.84c6.81-6.63,15.69-10.18,25.3-10.18s18.39,3.55,25.21,10.18c6.82,6.72,10.46,15.41,10.46,24.84s-3.64,18.12-10.46,24.75Zm-8.03-42.49c-4.58-4.76-10.74-7.29-17.18-7.29s-12.61,2.53-17.28,7.29c-4.67,4.76-7.1,11.02-7.1,17.74s2.43,12.89,7.1,17.65c4.67,4.76,10.74,7.28,17.28,7.28s12.51-2.52,17.18-7.28c4.67-4.76,7.19-10.92,7.19-17.65s-2.52-12.98-7.19-17.74Zm93.51,42.49c-6.82,6.63-15.69,10.27-25.21,10.27s-18.59-3.64-25.3-10.27c-6.82-6.63-10.37-15.22-10.37-24.75s3.55-18.11,10.37-24.84c6.81-6.63,15.69-10.18,25.3-10.18s18.39,3.55,25.21,10.18c6.82,6.72,10.46,15.41,10.46,24.84s-3.64,18.12-10.46,24.75Zm-8.03-42.49c-4.58-4.76-10.74-7.29-17.18-7.29s-12.61,2.53-17.28,7.29c-4.67,4.76-7.1,11.02-7.1,17.74s2.43,12.89,7.1,17.65c4.67,4.76,10.74,7.28,17.28,7.28s12.51-2.52,17.18-7.28c4.67-4.76,7.19-10.92,7.19-17.65s-2.52-12.98-7.19-17.74Zm35.51-15.78h10.83v27.65l24.01-27.65h13.26l-26.43,29.7,29.59,37.07h-14l-26.44-34.08v34.08h-10.83V39.76Z"/><g><polygon class="cls-1" points="175.66 25.79 175.66 120.11 204.87 131.13 204.87 15.16 175.66 25.79"/><polygon class="cls-5" points="140.87 17.12 140.87 128.78 160.32 138.71 160.32 7.58 140.87 17.12"/><polygon class="cls-3" points="110.11 9.54 110.11 136.36 125.52 146.29 125.52 0 110.11 9.54"/><polygon class="cls-4" points="0 15.16 0 131.13 29.21 120.11 29.21 25.79 0 15.16"/><polygon class="cls-7" points="44.56 7.58 44.56 138.71 64 128.78 64 17.12 44.56 7.58"/><polygon class="cls-6" points="79.35 0 79.35 146.29 94.76 136.36 94.76 9.54 79.35 0"/></g></svg>